<svg xmlns="http://www.w3.org/2000/svg" viewBox="0 0 64 64" fill="none">
  <defs>
    <linearGradient id="leafGrad" x1="0%" y1="0%" x2="100%" y2="100%">
      <stop offset="0%" stop-color="#22c55e"/>
      <stop offset="100%" stop-color="#15803d"/>
    </linearGradient>
  </defs>
  <path d="M32 4C20 4 8 16 8 32c0 12 6 20 12 24 2-4 4-10 4-16 0-8 4-16 8-20 4 4 8 12 8 20 0 6 2 12 4 16 6-4 12-12 12-24C56 16 44 4 32 4z" fill="url(#leafGrad)"/>
  <path d="M32 24v28" stroke="#f0fdf4" stroke-width="2" stroke-linecap="round"/>
  <path d="M32 32l-6-4M32 38l6-4M32 44l-6-4" stroke="#f0fdf4" stroke-width="1.5" stroke-linecap="round"/>
</svg>
